<?xml version="1.0" encoding="utf-8"?>
<!-- Generator: Adobe Illustrator 27.7.0, SVG Export Plug-In . SVG Version: 6.00 Build 0)  -->
<svg version="1.1" id="Layer_1" xmlns="http://www.w3.org/2000/svg" xmlns:xlink="http://www.w3.org/1999/xlink" x="0px" y="0px"
	 viewBox="0 0 512 512" style="enable-background:new 0 0 512 512;" xml:space="preserve">
<g>
	<path d="M256,0C114.61,0.02,0.02,114.61,0,256c0.02,141.39,114.61,255.98,256,256c141.39-0.02,255.98-114.61,256-256
		c0-14.14-11.46-25.6-25.6-25.6c-14.14,0-25.6,11.46-25.6,25.6c-0.01,56.63-22.88,107.67-59.98,144.82
		c-37.14,37.1-88.18,59.97-144.82,59.98c-56.64-0.01-107.67-22.88-144.82-59.98C74.08,363.67,51.21,312.64,51.2,256
		c0.01-56.64,22.88-107.67,59.98-144.82C148.33,74.08,199.36,51.21,256,51.2c14.14,0,25.6-11.46,25.6-25.6
		C281.6,11.46,270.14,0,256,0L256,0z"/>
</g>
</svg>
